<mxfile host="34b0c735-c433-422c-b5a4-b0fc8c497239" modified="2020-07-11T10:30:05.676Z" agent="5.0 (Macintosh; Intel Mac OS X 10_15_3) AppleWebKit/537.36 (KHTML, like Gecko) Code/1.47.0 Chrome/78.0.3904.130 Electron/7.3.2 Safari/537.36" etag="1UTQ-HB_XX_GZfXDfQJ7" version="13.1.3">
    <diagram id="6hGFLwfOUW9BJ-s0fimq" name="Page-1">
        <mxGraphModel dx="539" dy="552" grid="1" gridSize="10" guides="1" tooltips="1" connect="1" arrows="0" fold="1" page="1" pageScale="1" pageWidth="827" pageHeight="1169" background="#ffffff" math="0" shadow="0">
            <root>
                <mxCell id="0"/>
                <mxCell id="1" parent="0"/>
                <mxCell id="25" value="c" style="rounded=0;whiteSpace=wrap;html=1;labelBackgroundColor=none;fillColor=#FFF5F5;align=left;strokeColor=#000000;" vertex="1" parent="1">
                    <mxGeometry x="50" y="130" width="170" height="370" as="geometry"/>
                </mxCell>
                <mxCell id="24" value="" style="rounded=0;whiteSpace=wrap;html=1;align=left;labelBackgroundColor=none;fillColor=#E7E8EE;strokeColor=#36393d;" vertex="1" parent="1">
                    <mxGeometry x="50" y="540" width="550" height="510" as="geometry"/>
                </mxCell>
                <mxCell id="2" value="&lt;h2&gt;&lt;font style=&quot;font-size: 26px&quot; color=&quot;#000000&quot;&gt;Client&lt;/font&gt;&lt;/h2&gt;" style="text;html=1;strokeColor=none;fillColor=none;align=center;verticalAlign=middle;whiteSpace=wrap;rounded=0;" vertex="1" parent="1">
                    <mxGeometry x="50" y="550" width="90" height="30" as="geometry"/>
                </mxCell>
                <mxCell id="3" value="&lt;font style=&quot;font-size: 19px&quot;&gt;Repositories&lt;br&gt;&lt;span style=&quot;font-size: 13px&quot;&gt;article/auth/lesson/system/user&lt;/span&gt;&lt;br&gt;&lt;/font&gt;" style="rounded=0;whiteSpace=wrap;html=1;fillColor=#f5f5f5;strokeColor=#666666;fontColor=#333333;" vertex="1" parent="1">
                    <mxGeometry x="120" y="585" width="440" height="60" as="geometry"/>
                </mxCell>
                <mxCell id="4" value="&lt;span style=&quot;font-size: 19px&quot;&gt;Services&lt;br&gt;&lt;/span&gt;&lt;span style=&quot;font-size: 13px&quot;&gt;article/auth/lesson/system/user&lt;/span&gt;&lt;span style=&quot;font-size: 19px&quot;&gt;&lt;br&gt;&lt;/span&gt;" style="rounded=0;whiteSpace=wrap;html=1;fillColor=#f5f5f5;strokeColor=#666666;fontColor=#333333;" vertex="1" parent="1">
                    <mxGeometry x="120" y="660" width="440" height="60" as="geometry"/>
                </mxCell>
                <mxCell id="5" value="&lt;span style=&quot;font-size: 19px&quot;&gt;Notifiers&lt;br&gt;&lt;/span&gt;&lt;span style=&quot;font-size: 13px&quot;&gt;article/auth/lesson/system/user&lt;/span&gt;" style="rounded=0;whiteSpace=wrap;html=1;fillColor=#f5f5f5;strokeColor=#666666;fontColor=#333333;" vertex="1" parent="1">
                    <mxGeometry x="120" y="730" width="440" height="60" as="geometry"/>
                </mxCell>
                <mxCell id="9" value="&lt;span style=&quot;font-size: 19px&quot;&gt;UI&lt;/span&gt;" style="rounded=0;whiteSpace=wrap;html=1;fillColor=#f5f5f5;strokeColor=#666666;fontColor=#333333;" vertex="1" parent="1">
                    <mxGeometry x="120" y="800" width="440" height="60" as="geometry"/>
                </mxCell>
                <mxCell id="10" value="&lt;span style=&quot;font-size: 19px&quot;&gt;lesson&lt;/span&gt;" style="rounded=0;whiteSpace=wrap;html=1;fillColor=#f5f5f5;strokeColor=#666666;fontColor=#333333;" vertex="1" parent="1">
                    <mxGeometry x="120" y="870" width="80" height="150" as="geometry"/>
                </mxCell>
                <mxCell id="11" value="&lt;span style=&quot;font-size: 19px&quot;&gt;article&lt;/span&gt;" style="rounded=0;whiteSpace=wrap;html=1;fillColor=#f5f5f5;strokeColor=#666666;fontColor=#333333;" vertex="1" parent="1">
                    <mxGeometry x="210" y="870" width="80" height="150" as="geometry"/>
                </mxCell>
                <mxCell id="12" value="&lt;span style=&quot;font-size: 19px&quot;&gt;travel&lt;/span&gt;" style="rounded=0;whiteSpace=wrap;html=1;fillColor=#666666;strokeColor=#666666;fontColor=#333333;" vertex="1" parent="1">
                    <mxGeometry x="300" y="870" width="80" height="150" as="geometry"/>
                </mxCell>
                <mxCell id="13" value="&lt;span style=&quot;font-size: 19px&quot;&gt;agency&lt;/span&gt;" style="rounded=0;whiteSpace=wrap;html=1;fillColor=#666666;strokeColor=#666666;fontColor=#333333;" vertex="1" parent="1">
                    <mxGeometry x="390" y="870" width="80" height="150" as="geometry"/>
                </mxCell>
                <mxCell id="14" value="&lt;span style=&quot;font-size: 19px&quot;&gt;mypage&lt;/span&gt;" style="rounded=0;whiteSpace=wrap;html=1;fillColor=#f5f5f5;strokeColor=#666666;fontColor=#333333;" vertex="1" parent="1">
                    <mxGeometry x="480" y="870" width="80" height="150" as="geometry"/>
                </mxCell>
                <mxCell id="17" value="" style="shape=image;verticalLabelPosition=bottom;labelBackgroundColor=#ffffff;verticalAlign=top;aspect=fixed;imageAspect=0;image=data:image/png,iVBORw0KGgoAAAANSUhEUgAAAMgAAADICAYAAACtWK6eAAAgAElEQVR4Ae29C5RkR3km+EXEvTezMuvZ1a1+qx9qqZGEBBISCEmAEAjzXD+W8eC1vfPYxXuw9xxmd3bWHHY8Mzv22N5l7Zm1vcycw8EzxgbMAEJCIBBYbyHJGAEGhITUUr+71d3VVdX1yMq8j4g93x83q6tLVVnV3SqpWhnZpzoz7715I+4f/x//+/+Vc84hvAIEAgQWhIBe8Gg4GCAQICAQCAQSECFAoAMEAoF0AE44FSAQCCTgQIBABwgEAukAnHAqQCAQSMCBAIEOEAgE0gE44VSAQCCQgAMBAh0gEAikA3DCqQCBQCABBwIEOkAgEEgH4IRTAQKBQAIOBAh0gEAgkA7ACacCBAKBBBwIEOgAgUAgHYATTgUIBAIJOBAg0AECgUA6ACecChAIBBJwIECgAwQCgXQATjgVIBAIJOBAgEAHCAQC6QCccCpAIBBIwIEAgQ4QCATSATjhVIBAIJCAAwECHSAQCKQDcMKpAIFAIAEHAgQ6QCAQSAfghFMBAoFAAg4ECHSAQCCQDsAJpwIEAoEEHAgQ6ACBQCAdgBNOBQgEAgk4ECDQAQKBQDoAJ5wKEAgEEnAgQKADBAKBdABOOBUgEAgk4ECAQAcIRB3OhVMvKwQc0G6nqjiw/PeyziAM9mIIBAJ5MUxetiPsL2xJCorkIP/Nji204gBh8UIrPBKIZhZAL9MHFdpAvzyQtrDQRHCr4PwbjAztgCKFy3I4S3IBlNFQcQToWIiicKq8ll+dMBohKFIYqSu8VgwCgYOsGGjLG1NyUgUscmhEcLmBiwGDAsXJQ5h56kcYfeZnaB7Yj2RmGkor5H29qGy7GIOX7kLtNVfD9O+AKyDsRpkUThsoZwASlNaBSFZwDQMHWUHgUijKhHM4RNaIOFVoBzN9CjMP34/999wF7H0WSZKg2hMhMkR4hdwBzbRAXljonbux5V3vR8+bb0IeD0I5hcjmpDCkUIhgvBi2gs/RzbcOBLKSq+8oMuWwKhGkTxRQnDiII5/7CzTv+QJ6129ExfQI4WSRRaYKIZAIChWnoU2EtGjhxNRe9N/2q9jyCx+G67sI1OaNy1CoRIgjCFkrt4iBQFYOtoBzcHkBqAg5VYrxERz+5J9CPfRVVLdtwYRKoZ2Ddl5MUlpDaaI/OQlgtUMRKfTrCJMnj8Hc+MvY+sv/FLp/DSxvSxWEikygkBVbxeAHWTHQUvdQsFEkCBy1Gjjy9Tsw9djXUN28GVNZAZXV4KhLQCEpDKqZ/4utEZOvg4LOIjQzhZ7hTZh4/LOYfOAOuFZLFPUiEMcKrp6/dSCQFQZxSuutsUif+TGO3PFXqG7ciCmkqBQV9GYVVIsIUaFhlUKmHTLhIArGGvRkEQbSBCZPkOc51gxtwN77P4fs4NMwBsjUadfJCj9G194+EMgKLj2VdJoJbeMUDt/7bfTTXFsoqIJaRgFrZoQTWAXk2qJpcjSjHJm2wnV4vBWlMEjRkztUbIQoszj83b+Ba51EsoJzD7f2EAgE8lJiQunds6VLnF9jWKRPP4vG/Q9goD6AOKMHw6ARt9CKpkTfoApBG1fiLBJbIKIO4pzoIFNJC3nUgIJFkRkMVYbReOJhZAf2yG9kSG8Blt9waJoGyqm8lE/XlfcKBHJey040JDKXSCl4XaAJK34LXQAuncHoww+higZacROtKIN2CnERIynoCPQoTvMtfRvKRVRehINQCa/mBnFeQUtHmK60oHUDvZOnMPaD7wKYgHMW1lpMyzwKMQq0SJS8M30nbQo6r+fs3h8HAjmftSfyFc57xqlqUydQCgk93M6JhSndswcvPHAf6gPDcEUOWCdecRJJAe9VL0lElPW5n8VMJfMzEopCgoHL0Ffvx9HHyUX2wijavDRo8HXKiKORZBfBiUUsWLjOZ4HLUJ/zu0V3/tojspdq8nKbttxunIEpNBwKuGwGL9x3LwbyFiLrEPOfi0B/IFQhegfvs5iVlueom9ATH1slyryyErCCoZlTGH/sYbi8CasckoK0p2CNlrEMZyAKf3euz0v11IGDnCMkPVIrKKXA6CgCUtMvQbGKe3oEpHuexdgD96B3oM7AEhSie2u5zlDHUF4Z5xTaBLfYdHhv4wxych2do16r4NT37kN+ZD8ilQP0McrY7Tssdcf2deG9EwQCgXSCzlLnKFIZXYpMzsv8uUMqEW7TGLn/QVSbp5BHDjT3OqWRKwurLdEcmmRV4vFCXESU9/I8uYQEOWqDGYpVUQHMHMPIE9+BxrT3Ghb0sAP0O+ZU/EmwSz1DON8RAoFAOoKn80niLvVgEXqod/ClFKoAms89i4lv343eNcNoukz8HBStCmWR6cLHVNHk22EI6hyRpY+EopaP4uVo9JmktHr1rsHId+9BfuQ5qJgkATC6haGRnE1Q0jsAd5mnAoEsE1CLXUYEpwVKWAERuQK4PMfotx9G0jwJpTSc06hYhaqlPmHR0oUgvQ9iX4xEiOIK2hoU9IeILkIzMC1gEWAjaG1QmT6KsccfBWwTLqLIx5nSEBCWdrE1O5vjAYpnA6151xIXKcbIi5hZSkzZ8/sw+fW/QXXtMGyei4IdWyCS9A0LRvQWYvI6LWLNu7X/KvdWci1/Q7Es4n2sEn2ESk1fvQ+j33sY+ZED4pV0ugBtXrSSdWRPCw4YDs6HQCCQ+RA52++2EP2ioKBFR5+bxPGH70PUGIPYWZWSvbxlHGYMEBUGSRGJPkFu0hGJmVilPVEkBe+vxKqVmUIsW8KGTB3J1H40v/sINJpIaTwmpxJiPNuHCdfPh0AgkPkQOZvvxEJtZVen9YrJS+nzB3D0G3ejumEdbC72XLljme8k/gwC3THS12sKi44oegT9GWIh86IY9RH+UYyiBa1Ic9R7hnH4hw8gf+EAKhLcEsu9RS3yP1t0jHCiMwQCgXSGT+ezYplyYtqV+A6bYvTeBzE4MSJWJTrwSAh8zcdTIvdSr8WumD3uHCJFQolQNI6gSb9IlovjUMvxpUYI55eCQCCQpSC0xPk2ATByMNt3GKfuuQcDawZgbQrbIVlj9ndL3L/zaZ83kjqL3koVY0/ci/yFw14XcrlQZVtF6nyfcHYxCAQCWQwyyzhO5KMXpDDkFQXGH3wE0YnDyGINFmkoKOjMbvfLuOFZXkIulLsCmdGoaANM7MPEDx8VXUQ5h5wc7izvGS4/EwKBQM6Ex1l+U7AuQkTH3OHncfzuO9GzYQOalmZceke8/rDQTZcjYi30u/nHSIAchc70qN6HE3//bRQn9gKKvhDqQOF1PhAIBHLO0PN7c0Z1udXE5L33Q5/YD8tyPTaGdQaxs6fjDeeMw1+eFrHOj8UwBCUhHdgKdJRATzyF8Sce81pP4UNg5gwdPp4lBAKBLAWwsuCh7MUes0vrE/kDYIR7HMXYnXchWT+EzOaIrK9nZRzjdfnnd3nu9tzX6aPwfgq54VIzWPQ8f01ve0JPoo2krlatp4bRJx5BMTqCmGmHjiO2vfD+Vn7U8xt70Um9yk4EAllkQYk+pABXOJBLCKcorHjJM2TIpCADnX8WE488itYLz0FVGExIKxJNvwoRczxUBuoDjLTNVI5cwkxiyQ5kdOGZqLvIZBY5zDlSz2DssFYZWopBkr1Qx/di+vuPAG6Sbn0ZgyN5S1v7jckrIWFkEdDOHg4EMguKMz+0BR/FOlaijPO88jkWLAFHb3YEZAcOYv/dX8fAhm1QKYvDaZa2kleqgVTFgsR90OjXVcQqAkv8NGI6DX1VKyHGM4c/i29tTuA9g6yi0tc7iMNPPIDiJC1aNB8wH1GJ85A39t+ovHD52096FkN20aWBQDotdolDzK2IiX9aITWMcqJcxeQni4nvfAfJvn1IogpUQa5hJN+DORwthryzjKKO0Gw2cPzwAUxNT4tYViBj4Mgs0naaxmLniNqcG/9RypJqcoVDrBTU6AGc+vF3hUuQOGZf1ItEOOSxJUJdZn/UvR8CgSyx9t4O5TMEueEap6GsgqooZIcO4cjX78TghjXIilQIgWKM5zhMmbJgeQbXaCC/6rXY+Tv/NwZu+W8xfXIMdRVJ2Lv42ufg7xLTefFpSk6soSWxXUCsDbTNMFSJMPKDB1CMvoBKGd3rfZN8IhLJaY7y4puGI20IBAJpQ2KRdxprvbGUCA9oRpVLCEmGiUcfhdv7NGyPQVNZqZ7IlFuyBQYxsihc1VjkMxPY8PPvR8/NP4cNv/xPULnt5zE1ekx8FxTHZi1aJJSzkLd4ORFdjFjKW8ykmCMsKlpBvfAsxn/6BOAaQjSW9w4rvshKL3w4gGthuPijRCihDmrCpcmUmX1GoThxFIfuugP969ejZTPkEpSoYFWBQlMXoQIfwaZN2A0XA9t2oEn87O/D9l//NWTXvxUzY5MwUeKzEsuQlLnSUKepyTmKfY5OSfkgmYpOct0Z4lKgXunDib/7NoqTBxBLuDwpikIZX2dBiUtO5NV7QSCQTmtbij4eSFYQsCUWXIeJ+x+Hef4pRHFFLFSx1Ui4RUuuufAaaBehyIDoou1I+oYkjJBsJu/diF3/5COY2HEZGo1JaMNiC6fjtvyUvKbQaXrkHzQhCNeClTJAPJYbjRYLOcQVREd/jJmnvi/WLE6P9O5Jw/PFzvcPZwOBLIYDxCL+idhDNVhLth4jaYvREzh25zfQv24tVGFhrJZcj1i4gBWFmWZVrWM0Z1oYuvgyACxSnUpVEvF6b9iJ3b/5W8jqfWi1WkIgFJd88hUn1VamF5ugPy7TFEL2aM+jtFrlWsMWBYaqVRz6/iMoxkelGiMlRIbm84k6xku2n7/z8K/6s11NIMSB2X20RIg2XlCWp5sgZYosc4+skbTXGjKcfOQRZD/7CaJKBYWziJy3IjW1T2RqtzpQ2qKVHka882Io04MUCVQPWxaQVBTi7Vdhx0c+jhGqNa6FxGjJIJTQEYmf7+yn4FwZUkJdh6KWUDO/oxAvPmtmuUoN7sizSH/yuOSut4RAaEZgYTrmspepuiUsShr3m0Nb7HvVk8HiD9jVBEKwCJLN+0DrU2ZYfIFnFaJUsRwVYiriR47i6Je+jsFNG9FgWxyGlZeGU7lXiagSpGgtVG0I0UVDgrvtMnFt34qzDsnlr8PuD/9zjJ9KoS2LMTAKWCFzzN319bAWXz6OOPsEs5d55Z3inkLLAX3VOo49cS+KsSPoozGYgb5ZDF34vBE292FoJTcLyTeRyvK0jpUy5uydu+9DVxMIl597qSCGQIK5HfSCU8lOkSOD8fEhyKMZAC2Mfu+7MD/dg1pckVRa8YmcgaQeYX0yU4pk7XZEG9cJZrF2Fcd0bHNA0qMFS8Xoe+NtuPi//yiOjx1Eor31S0r8KCrgZ/+i+MQXGQA5YT2JYI89hfQp+kVarF3nk65UIjoMZ0Whi3EA5D6ESJv0Xkx+Zz+fC/kXXU0gggVlQB8RgZYox/gl9m3KDeqsuk7HWtUhNg7Z/j3Ye/ud6Ns4iFbekmJtDBZcEImY7ZdlSC7aDDPYJ6EqYgeejc4ihTg4Q++8wuC73oX+D34EUyfGUUMMw95ULGJ9Di9yNL40qzxSVMwzVHvqOPTEfciP/giVuCn9SqboJ2SjHnIqGwEsql1QzNPi7GQVFn+nc5jEq+Qn3d2jkJF+Ji/3TDrYKFsQ4TWcZoE2hRgZ8hdOYPzv/hbP3f4VrD86gkrFYFKwR4GKeVvEmosTrGaStWYwuHUHVNV3kZLtnNt6G+voL1GFdJaKkGDTe38Fh0+2MP3wl1FZ14ek8N720z+YO0LnzyRacgWWICVfcKYCPXESz9/+SWx64ztQe801qPRvBdAPVkQVaarN1kru01GJ7zz8q+ZsVxMI92eiYMJdlLqqYoG3AonxhRbyY8dx8tFHceT2u+F++CTWb1mDasXAOqKcQkv5OC3ynPkvrTVa06dQ274DQM1zmVKnaYt1JBQJbGS9RBayrg5g04d+HT+d3I/en/0deuuDyNhK6jxevH+qI7FcDdgCauQoTtz1KejHd+Oi170dyVVvhhkaBpCgcAYFS0KWmg3pxccln8cELvCfdn0LNmudhI6gKKAqXE12nz2Kifv/Fke++HWkT34fQ5s3o6/Wg2bRwpSU1QGq9DqwwiEtXKx9JbuvL1jNHd9EBuMnX8Cu3/0PqF73ZrTYRQoZWFvXsdZVRP2HkbYRtBCBhWPIeuRgj+/Fs3/yCfQcfw5JT49UcKdO41j6h1t9OZYf0+syVGi449MAwGvls7xbNCMjF/UyAoCVHSsxmlmBopVhZvN2bLz6BtR2XwMzvA1AHS3RzNocyOtLFzien/P0Xx0EMl8JIAK1XzwnZdFPH2xfLu9kI1SM4ZAdOozGw4/h0Jduh3r2R+jdsB6m3oMJl0rORdVpTEVMZVXodUR4doWiwustRkRcI3oMleMCrZ4advzuJxBvvUTEOAo7rJToCo2c0bxSosfzH8tictQ7CocEFaT7nsKeP/td9KWnEMUJLEUzIRA/nvhMJJjSCkHwGT2BeALyRCJXSfQwTc4sOldEEaYNowEceql/FTM4lWVIh3dj+HXvwMDu62CGN0pfRRE3mcrLxokEYxumJYcRX8qsBubHOn0Jocu/C1vNvfAJpFwHiUGSHXS2vYbXJ2wOZahsl/amUqlmFyejGA4yg+zwcUzc/xgOffmr0M89jf71GxHXKsjzDNRQWCWdG7co5FRsGbSo6PNgRrqWvh9sn1axFZCIbGRxKm/A7Lgal/yb34eq1wW5PEIRq8+cI0/6Uj6Mp7JAZqEijZmf/gj7/vRj6K/WBdkUw1gih8I4cU6yE64zzFTx2CsedfYDLXunk2CEy5St1B0JmfPngysn/huarqGN5LZP502owR0YuOJm1K+4DmbtFkD1i+glqM59gB9o0DC+xKkX3niEnMb/85d4W5qHuv/Nhfj/BU8glLHbL58755dKzLMOSLVFTIzOfEfYjE40NtdsWeSHDmHyO4/i+S/fhXjfsxi6aB10PcFMkYoplFYgeiKI0UQ2flTCLXzoOzWVCBqZaSIzFhVble8qdpgYP4k1H/gQ1n74N+GiePF9lNNvI7J8tGALW5d7ca35vYfw5H/+99ha0Yh1jibzOxTzSCguMfedTUL17Lz0rIjliYBiGQf3xNIWAdvfyQETkLtEukAkRSAcJrIc+cB6XHTlTei/7FZEw+vIcoRQ2lqJjwimg5IchhMnWYgiB0gTIM8/SubTXqIL7v0CV9Jpb6Jg4sMryMylb5+EQtFT7BFcomUjK/J5jALZAZbneQwjn/0aitFnsX54IypbtiC1LTSzhuy63J3ZkyMThDxTvJi7ynQUkhjJocgZ0siiypyRU9OoXLwVKmJ+uieCub9b6DP3XF5KacpESoxe1evfiktcgX2f+X+w1USoxpEUri5YIV75MqbkDPwsBMygypKQReSS4hGnhSMxonkmJlOgDY6mhkKMa4VkSK6tJkjTUUx893OYevJ+9F/+FvRd8TaYtZd6EmarBVo1xAvPUt0iZ5YqffmsnMNCD3mBHbuwCYTyAxFZKdn9yhUv14v8xAcYimJbWKTPHcDYfY/g2F9/DfmxZ1FdvwW1zVvFT9DIW2LBYosCKYTgNBKW+uywoERnika8rnA+vyI1JFKHOBmA2bBefn06QWmBm52BRSQ0C20YuFj2Sdcag296Ky7vqePZz/85esf3o9rXI2oBBbyqBEh6x56IT8x3F7XGy/7CX88Y4/QcyAVqbgaOuonxs5TrGQGgHPqqg9DpNKae+DJGfvYghq68BYOXvbEklDoKx0hkNntjpyzauzxReO7CoBZCj+LhhauHXPgilvgtvH4g0pbs1g5pzJA9jTjLkO09jJF7HsTIX38N0eQhJEPD0D3so0zew8Xz7cqk9gG/tvUL0Q1Ykf3FIpbWpZChgZotkPG7jtCqWFSyDE6vwZY/+kNEm3Z4liAy2mnknP3E+fJV7ur+a9u3wnx4im6cokX+wl7sf/AeTD72TQzoFqJqj0+QEr3Kid9G7kNDAcPvhZVkQkxtEYuPK1OhTqXY9apAQZ9NxKjgUo/g8xIOElumpSh2oTOk6Um46jAGLnsnape/C+YichSDzFHU45z5YiwYf1JyFepDFzAvuaAJhHhDFCcbJMfnZsqiCRXuwFmObN9+vHDPgzj42a+i3jiGvqF10D0RsqwF47ySTiGNZloq3bKHEtEZsdtWnMWbvRSBWImeFXEsKWCaDRQXvx6X/P6/A3p6vXi+yC4uODXnvza9tA9Z6tAUZWwKZSK4zCLb8zSOf/fbmHr6QRQTBxFX+pAkNWmHEEUxYvHjOGnuaWcVdhaxO62PEGc9zRrkkZasRH6nY5HVWAz7kUiKcSTiGwMstUmQWoPpPIOq1bDusjegsuudoswrU4W1iVST5H1mq96TPi7g1wVNIIR7bgsYCXrVUAkxO0O6Zy+O3/U3GP/M16BwBNU1W6EjNu8gOfnMQO6whv4LGmCZfVcq5LyMC8z2aNwVc3rUPVORjXCuks4DVIJ7nEOmDFpGI45ypONHUH/fP8XG3/gtuJh7qdxhQTQ548x86uBsC0aA0BSRi+VK2wjUy11zFPnRfcgPPI/JI/sx8cIBFBMnoCaPImqNo1atIoqqsEkNiklZVJFYTK7UT8S6JTOiT8Y/BxV/plOxPRwT5ymakq5ToyUXn0whQSENgrgVNbIJTNe2YM2ON6L30jeJ6KWiNT4GjOPQYCBjLHN3WBBCr+zBVU8ggkBzzKL8Ts5BpKPy7VQOw2VNM6TPHMLoN+/H0c/cDu2Ooj68EXEUyTnqI+QM3BWZcxEz3opxUTqTMHYq9EQa4STS7szbxFRZX1d22xK5ZPel+FISCEUgq0kgQC1RGD30JLb/H3+C+m3vF+WXnWgXEzPaNCEoxC/tAyVeEFc5r5yiEdVg60R5L/gcNDfzJxTpWlOwEydQjB5FMXYME8cOoXH8EKKxAyimR+BsBh1VkCQJjInEkWk0hVASn0Vh+AxexOL/kjMSsUlPJkm9hAt1M8JBRQotElyskeRNNIsc05W16N35JqzZdS2i9bsANQxnY5m7gEqep/1wbYLh9/bnV5YQFht91ROIkAP1DGKD7KbAtHPoYUgIBYK8ifSZ53H4jntw8nO3o65HUO/bDldJ0Eoz2RH9ApGYpIiUiFLiSBNM97sqy+PM1TV4SpbTG6dm5fb5HIThWz2FkfPNOBODwQuxwdV/8EeIt+6W3VSIa7EVWM7xEo/8mygcgqlldIyMfaYkw26eBVzaQjF+GHZ8BDOjxzBz7ACyk4dQjB+Fnj4G5NMwcQ/iOIKLq8ijHnFexraJSDMzMfa6hYCtpA7RtUq8Fgcr/UyRbD6tYhJ5UkXfxW9C765bYYavhErqsNIPnmZ2zpiRC16hl7L4ouysXiJZtQQiyEDCKKhwQ1qYSZ0zVXjH30wL6VPPY/Tr9+L5v74dg1ED/f1rpQ1ZK8ukNA+Fm7mdZIUeRGSiSdQvikd4L2LJZiYWoBIZyK3K3oBy+RwOQh8Jd/FUK6zNFRpRgVZFw46Mo/Zz78eW3/wtFNV+2eFXbvmFhEsS81Y0HhHYca6lHYk6mtjj7Axcaxp2ahzFqXE0xk5AH3sKJ0dH0Jw6idrkPtSpuFd7kVFdEa4q2ryAS8QyYSO8YTmAACaCVhoRowx0iukiw0xlDfo2XYO1O68VZV7F65CzmB65qfXeeW4unOPKwWc5u0/na1YtgcxOu8xdaKGQEjpRK0frR8/i8J1348RXvoZe00R//waRd1t5ihmaFpVGDREqUJIRyIWVReB/stV6AvA00v5MEYuONF5EbsPf0DLlfRMLEQjFMuoodZujEeXQcQ0jJ6dx9e/9ISqvvwZpZJCIh3n2aV7GD0ImIuKx/TS5qDjQZQbtDSCHy8YFYd3MNPJjT2Lye9/E1LG9MHFFfpOoTKxdbUwWxyNB1CYQgU8skWYUJY1usSIeMqMwk7eQ6SH0bb4GA5fegGjDbkANwrm43J/8HF9GoJz1UKvaD0LwsbQmtQEJ6hg/hdHP3IGn/tOfIVEOg0PrUeh+TGUpTO6zkbizE7Wpp6SlQM8j7Ze3VfHO5/ciAdFSw27MU7FFLUowc2QEQx/8FVSufK2YwUzkXX9e1T2/8c7+157QtWtJFRYPEw8Xai4+f9AA8Vq5tasMoTK4Cb15gbGv/hH6GdBIIMpt2gR15izIfdlv12kfz8AsemHAGVvRGSRRLxomR3bwMZw8/EP0XnYTaq99N2yFEc6E3wx8hKj86sybr5Jvq5pAyI2jVgGVGOQjY3j2Dz+Jxrf+HEPDV0C7AnmWyv5MiZYGLFEuS+eeWKDEMuXXeKXgTUOBVglMI0drwxbs/sD7oXpqsOJhzIULrdTYS9+XQKnKZtG+1pNNyUhLgwetVjTt2pnjmNz7NPqMg04nUU8Yf+wjlRe0M0gRbhqGFazJJMaLjx0x654xaSyiZ1qoxQngUkz97E5MNsax/g3/GKq2EbmieeWV2T7a8FjqfVUTiCh0MWCnZnD0j/8LWt/+DOrrXg87PS2FD6riw+Aj+p2R4RLk3TTMyoOJlWspEJz7eW6wecJwdYOTYxl2ffyfIb54K2zmRBfiTj2Xe537SOf+y7l9QtthJmL4kC9kdAYUjezkQYzd+znMPPMQenqG0KIvhI6lM7X/OROhsYBVJms+mpmZNYrNRWkApi+JImuBxIqNTKyHvUkdjUMPYhIx+m7475DHm+T2rzSM5jzUiz4u+vgvuvIVOMA4J9rjR/7mIRy765PYuPYq6MkG+qFQR4Qmeyk5JbkWM6JveEIhwEkkXgR46SZ+xkISd5ieay0OT0xgx7/8F6hed72IddpYEb88qb5045/LnahDMXVX0nfpMKJHVReQnFrxe6QoRvZh39c+g6mnH0K92osZxqDFPUjbFqYFVQWv2LFInpgXCXOm6jJt19Kb4nNPdF6Rwm1XTAkAACAASURBVBbNuGCQMmqVXjQPfxPp3odRdXkZHXz+Iu+5wGY5v1m1BMINjlao/IXj2P+nn8HaZBcmZlqSYjTpgGmvFiJi7JR81qiIf4NhJ7Tjex2Eu/y5vuYuG3dGytgisDHNNo5RpBmaI2O47uMfQ/22tyItNGLH8kAFWLFEKvec6+DL/N3cOS78E86ZEKLniK5Aehlj8VGwqHZ++Ens/cp/QHzgUQmrL6xFTeeo5ZOospQL9TjeYsGBLGw0Axs1JbKYnJSZkayWwlQA5rpb1yMEyTYQVM4pelbrFZx4/juwp46Ist52Jy48/1f26KolkDL8DjOP/xD2+OOI+6po5blYsmgzYaosdyn23hBuId+8l5xhIty9matxxq4/D9ZtJxzXngTAP77m4kJ78UgchaKxQKOS9GJmYhpjlR7s/ONPonrjO4AiRkRHm+KosVjDaDnqNP686Zz1V5l3qUfMnXP7Ru1j0gCB4hJDccR0znlNInvuURz+0idQP/kceiq9KGhHZ4SwiEUkqDkS+AIPQtiw2AP/SBwcwJpc/jgW63W5aBrGKlSyiohs2tBC2APbOIpi5Ac+6bk90fbEV9H7HAisolmJ0UTBtSyOff8niNWQZNqREGhv51qJJ51TnkVqv9N5o6wnkAXWdMmHJNG07+kvJnoVYveJGdbS04vRE2Modu3Clf/8f0Zl99VwOdNlKQ62RbwVpozyKfh8S+GWIGmhoSheKebfsx1DjqmfPI4X7v4k+phfHyWSAeltrx4AbPjjLYJLjEA9hJHMnAu3W1F6fMqvn2b7917k5RjMdYldjnT0ecTkUhIJ7MddcoFe5gtWJ4GUQGAIRevpvegxfWjmDClhWDkBTYHBo4fomkIJy0GXs4eutrTQMPOwQCVOMH7oEJpvuRmv/+hHYS66WIIimf1HLz3/ZCocpo0XZz/kWf1ivgjQHpbvPMdQdu/B9lG20GM4+dh9GP3WX2JNYuEYisPQGtkZ5u4Ny0RYeeA5ZuA2G26vCfPsdeoVeBqBnRELpARTTx4GbMZ62qv2tUoJxC8Od+Voehpa+YQeCS6UnntzF/Klhm0bxfx9DVLfSi2p4+TeI6h86JdwzYd/DWZ4s9c5Ip/DIXixoC30pZ7fvPu1p9sOjRHaFOFHaFSQjxl+tDClozj50O0Yf/DTWFu/CNAVqZrCa0gfEh4/S9mzpD5vwOV+La1cwuvJXRiwxohrpipzg8uR56ekCv1y7/hKXLdKCWQOKOhJl93t9C435+xL+7HcNMvNVJDKGCt1dY/tOYahj/4WLv7lX4Kq1SW03hlqSj5sYi46zf380k5wgbuVc+YZfmQ9Xn6ieMTi1awBnDBMfmIER7/5n4G/vxPr+tYjZXotRUcS9SxxLHD/l/yQF8deVhidxzOsUgLx4GO4dVpn0IhXF4mOPsjQI8NKAZnOeBIJLVXTqsD4gaPY8a8+hrUf+G+gElqAqIAyt11ye89wdc3OafbDeazOcn5ajtNmJNQzlCjkvqFOJdIoTjyDg1/9C8R7HkNv/3rk1kr5UylGcYbKNXuX5Yy8xDXUw7ipeTsiTcCkRUkN1iz2zbIuA2LUeClHXWJSZ316vgh71jdYyR+oOEJy6TY07SQqEetnsIWyD/FuW7kkskQmca5g9hgmv+auy4601iGuxMjSDIdPOVz2id/D2l94r3j0iVTiHqCMz52XCMaFL/9mJZRyR19J+Mzee454xacRA0ZOzqeQHfwp9n/+/4XZ+xAqA/1oWQo3rOnFTEWfkjx7n5figwCCNyJECSC6DbluRkQrVpKkMt+0CknfZkCzgPbqfa1OApEd3Elb5Q3XX43UnpSQ7NJSKQD13cdPYwbVY64NlfdZVXkpyJfjcHn8byhuWMSVChqnJjCjE7z5E3+AgbfcIsGQhUph2FZZHG8EXXzaNjxvjZcaet7l5/e1HIxvXjx0klQ187Mf4cB/+T2YkX2o1NbC5k0UjI1ixqE0/Gk76s59eBnzjE1CMrPgWO1krhteilqQfJmpCLSsQTy801uwZP4lKzz3qazIL1epiHUatLXrr4Lrvx7p1DSSKEKrYHQQe2x400fbaEK1lA8ju6djCAXZuPdbLAp67vpMGmJDTdr+dY64qjFz/Agal16NKz7+26hccRnEu1XGDXlS4p7oU3MX22EWHfMlXUZPGc63uJXcYyEQVaD5wwfwwhf/FPWImZYJWDnS0UdjqZ9kIqpm7YqQ5zgnPmPBfiTirCUXpV/EW/QkAY2OQ15jZoQwk4LnuTgFdP9umIteL5Fbp6WAc5zICv5ssfVdwSGXd2vu6OxaEW/ZiK0f/VWcaO7BYL1Hqhn2s7IhHFIUcg0LeKawaLK2Lh1nLIomJYBoLVn8xXM9XFTHfiCATnowtX8EjRtvwlX/1+8IcdCXnLEYg+KfkfALci8uPEWsV/blIwbyqJCQdJ05RCrFxPfuw3Nf+CRqrMcVsWo7dSW+6Mj0FsDSzXpe4g0f33vM/d0Ze1WYDEXUQhE14KIpGNWQcHrrEjhmJ2qH1kyB9Ze8BbpvU9lv1/9+Nf7fCX9e2flK1UPmmDtsuO3tGLrtH+HYiaeh+uqYcg4N5JLcU4UD/3rgUGFUajlr38Cs0z4uGiMacGhIbJLC+IGTMP/wV3H17/xrRJu3I09zCWdnj/SK8zW3GDnMSCPvEjyfQJbzBy8RlFzSgiV2GDqeofXk93Hwy5/EppjVSLR0wDrtnGmLYH7sTtBZzuz8JkFYeI2D1VEYpEio8JiQr0kR0ZNesByRwmQ+hZ6L341o85skju5857CceZ7PNatWxGovocsUzFAftv32h/GTqVOY/ts7UR26VKoPNtKWVCSJpRoHq5TQ680KuN6UyCWiyLXwIvhrKK6xCsrkyAls/PV/iIv+h/8JurfO6GwYLV3OxX5PdsGlp3HAe+t9VqKWUnULj3A+C7Oc33IefAp202XwYfHCPuy/46+wkQFP1JMc57+yc5NKKV4N9x2x2F+Eom3uwKDNIkolUYui3djMFMyOd6H3dR8EzDokaMoKnRaol/PUL+81q5eDcFciA6lqtBgftHEtrvrD/x0bf+1/wejIXkyOj6BSrcElFaSMMVIa065AQ7H/HxFHSWPNxdCDxyl4zGiHmjZIG0cxcO1VMMN1MGU6o9ge5Zhh+SwWVaNsnUZQrQgqj6QSu5UScYuNsPILycWLWeStSODyAgcfvgeVkWdEVJxRtFZ5n8hKzYQczNdB8XENLKXEOluGITkiyhnktgdTWYZTroKBKz+ETdd9CHl1vVQnPcf+QCv1OAved9Wn3FKn4ybIAmqS6t/I0PrBT3HgK3fj1DfuQp/R6Bu4SOzrTUm5ZcyRAssPLJVyy/syJL7fJJicnEL+xmuw+R/8IqLX7EDUX5diBDC9s4CTGlUkLG7QPMrfkwfTfLbCO/XsJOZ9YDUXlURIf/YDPPWpf4mNNRIvUGiNLM6loruoymJc8nZpUYrl2bkJeb1E8mu9GVD0EgnnYbRlmYMunIj3KL97ZYaGCtbNou6TCcegCdyyjq8CWlmKItqA+tYr0P+aN0sRB4s+OOfDhlj1pB1RP++xVs3XVUsggnK0uuZl0QYGxEkBap4BbKOB1o+fkfpXR756JwZNgb7BYVHQGfXLqFvG1S5UtIH7HuOmJNpWOUyzdKmOYaYamJ48AXPJTvRs3Ib+S3cj2b0DyUVrEG1aDzM8KN2iygrAfj5M6CrNqxR3/F7aphc/15UiHt5d4NQcwZEvfhrpD7+NWr3qw0YQSakgLTV8Zc9YsHDcmQTiLQ9yT9KGEEi5EUismej5QhDcDwhDFtKOFMXbDCbS4qGfLCzynkEMbb0a/dtvRnTRVkCzGRCby/HF8HgKvyxdKgdW7X+rlkA8xLy87237zF7zBTGmHGvKFojpZEpn0HryGRz4yjcxcfuX0atT9AxuhmOxMxKK18W9VlLWvvKJVD7ilJaXTMeS/hmZHDWGa6dNNJsa+aRFnu+HToYQb9uBaMtWVHfuQHXXDiQb1qFn0wbowfVQcUW87u1VbiMu3/kit2FYviCV4JvHCq9DnCuGMLTf/9bufwJ7P/VvUGM+jGJdXQqPEYyLkEfi9hdEFH1hTulRz0nKii7efSGTFQKRulsiJ3k9jh76En6sRkLi4E1F3yAh0YqYp8gq69C/883ovfSNMGsuBqK1vkIKmVe5FjLtV5DrlsuyrLdVTiDiVjpD0WwjH5HOsjOT2OEjuFYLrSf34Ng37sOxz30BVT2B+totMMrA5jQE08/hF1b0ExjJLaHvg7J6bliblqKCY4ksXwZEGxhmDdK7nqYoWinS5jSakydh+voRX7wNev0WDOzcgfpOdrNdj3j9RpihdVCVHqnsznw7Eja7SCnDnuuez0SSz82Tp52dsmLEtTmHFicfJwWzKes3Hv0iDn3+97GmfzuaKoXSRlo+KJ2JVYkPJMOUIpQnDC9eEsEpTklPRo7brjnMnu2aelxZNV58SuV0I40WB2bVljxHMy/QqK7FwKVvxuCl18MM75C+Itb6YnzCqflwQnnLwstVc9GqJ5AlIVUwF8MjlYSdZy2kz+zB0Tu/hdHPfwUxGqgNb5LSozZLBVt95K1oEbOchUhCWX2h0qM0XRKpiDCsvM6GPMyzYNGIadeAmm4gmpxBlPQDm7fAbtyAnl07MXTZDkQ7dyLauB2q0i+yWJGkSF2ORFVgUlPqMPOesqSKzvjEOCcqZzmO3PEnmHn0y+irrUXBniHGF0OIVEtq5S5GICRE6UlYEpDfbGggt1KbVxRtDqEjNE1FqCN2FhUR21popKNo9G3Hup03oLaLhHEZoPt91qJo4KzPKEravAe8cL5e0ARCuqAHgD4KqcKvgTxyUt3QzTSRPvs8jtzzAA5+/m70ZaMYGl4r9XubeVN8GZSHvedEwUjZTcoBSxWvJjFS3OCuTN2FGXIMECt7FhYpXJEhm5lA3jyFYvMO9L7pXdj01vciuexyKOZgFMyBSKS55nz0WZxjzEcqTz526hT2fOpfIzn6JOK4htjRWaeRG40ey1bS5A4LcxDhVMrIed+7ndyEnnEfiMkNoaWrEtUcMabKRMicwXRWALVBrLv0OlQvexvM8CbAVFAw90NRr/AsULOFtrDj+XO/cL5f0AQiYLYsve8FaBG9S42ZbQiYRxLnKdKn92Hkngdw7HN3oZIdR60klIIchaq8sAeGpngdhzKOtFcri1iTAOaKJUQsCVGhzO8Mc4DQpIfYWOjYcyI28omMRsPlyCYnMKUqGPq5X8C2d70X0dbt4lFm2zYv6FHs8ghfSlheHOEDLkIxotKwgsiRZ/Hcf/wd1PMJ2ChBPS+kBzobd/bmmRCL1CMmzs4TsSheMQSUDUUIw0KTWFihkWImi8CRaVCUosm4hSybgKqtl65T1StYWnS3LAGLMbDuscBIpkzfjI+Nk/kv8gwXAplc2ARCLBGnGHd9URzoH5MXpQ8WnYtZVpB+DCqQe/bi5L0P4+gX7oIaPYjahs3oSWIUraZokLlxKNihyQH1soEOG17yPqKHChJ4ZZsEwn9EsTbxiDauadlhyVIiDO00uVh3iGhTY2OY2rATl//GR1B9/TXseSs6kii/NB9bIiWde6XlmE+yCHLR/M05tX78MA58+nfQW+tDZiLU81w66JJA5DOfnXNdgEA4P7G6lQTPixhIyPkQjCxyzbYL00UD2cAmDF7xNvSzivsaBhnWfFeqOcp2aYfwsJLGFNTA2DrYi7MXAkHMn+MFTSDexsUagfzkDaz8338i8jJSxcEUFIlKMwoyZPsOYezrD+HEX30davow+tetR1zRaBUzaLHbrHSNYoWS0y3YFiIQAjNjaUUiU5kGzMA9wWoiGg2ZqkBadoqtGY0ia+Jw3sKO3/wYBm9+h+gR/InQtbSG8oQneMcHWAS3WAPMKIvGA1/B4S/8LgaGLgYFxyrZqLaiN1RYDI7MdQECIcFQ/GqpHkmailWOiL9l6Ir0VXeYSaegBzZj8LVvRf3yG2CGtkvPd3DToeWBED5jd2hTc/scH4DBP+3j89Fv9X9f5aEmnQEoqOQo97YrM3FBfPgFEYy7tgS6slOSJOywYxMQb9uJdf/jNgy+6xaMP/QI9v7XryI5sBdrNqxHtVKRJp7Ubdg1ioq7J7WF58I4I+II35mdp1nyhxY2MjeGdTMI0voSOE1kiCsG6yq9+Nl/+mNcrQyqN94iPUAYp+TbOcyhiEXxylueyD0nj7KBTlX0rrxgm2fSlEPM6iUUl2Q2p+cu+Hz6qyjkbb2DnKPlgFNpDjewGRuvvwm9ryFhrJPQ/iz3fguvrxHvWUW+RCFRAsVmJyZmlhYSqp/zOHOGvWA+XtAcRKDsUzi8zE5RgbXcyj3L78K0sTJoT0z1siEThQvDClF0JjaQ7T+C8Qcex6H/eieiA8+hf8MGRD0VFJTh6SfhPii9OCjK+XwGcgzmVkuZTenfwZI3VvQR+la8+ML+hTFS40DxjdeTKzERrLAZJtIp7PzYv0ftytdJFXsVU7QhQfrsO8FtQTBOvk0tfGBvSFDNKez7j/8K8ZEfoGbqSF2MPCkk3CPiZ+3nQ6Lgn9dBKC/6z1JsmmYKtoG2GaZtCjd0CYaufAvql78RZogJTb3y/JwLxVdOh/di4hjJwRce5ZzPFAs5Y77asy6/XnBvFz6BEOTt1ShXZC46yTlvVJHF4YK1L5fdldQkjWQKZPsPYOLhx3Dki7fD7P0J6hs2Iar3YNJliAu2YNBoxAqZAnoluleLt1oECmJO+48jlIo9RS7K9SQsj1y+ijzNxYXNcaraj9f8r/8W8c7XIFNNaclsEEOz+QxvQzcMXYIswib3aKFwtCwB7ugeHPr/fhtxNiPt1+QBWVdXCMLzPWvYaIfHJGEZNooktozOxCo5X97CeKuFYt2VWPe6W9F72Rtg1mwUjuFLGYkyNQs7+VDC0MPZ/78wIZyxEu2fXlDvrw4COQ+QS850LpUhfKFxVsE6cQRj9z2OF770NWRP/RhDmzehr9aDZpZiKmKNLIB1gamrEGkpynnPsncyUuQThBGC8burxGuRpYk32pOoiWPMzEyjtWU3dv+z/w16/TZoyoQs58nQGu0DM6TarWOTGpbuIYFQb6CC/ggOfOq30du7TqqDSISA4LMX+7jV+7KjbPCjJLCRZmkYJp4VmE5byLfuwuarb0R119Xe86364EuCe1FNiPqC5wPnjiBdTSDcUzNk0sMDuVcmc4peRHDpKnsMI995DMfu+Abw909iYMs6VJhl63LMxJDmOVWaRKmliBxTdoedQyBETMEvUYpOE4gch0WSRJiYHsXMVTfiyt/4OEz/GimaCs3akbQAUcafy0Ey2CKRVs+TD9+Bw5/7dxhcswXW5iLWUeHnvTmsH7dAoX1zTepHEXvBt2Zg1r8GQ9feiuSK62GG2AIhQW7ZzLNNlJ4hXtgq9rkTRvuXXU0gBAKR3Sf5MB3V13UmYpELONEbCuRHj+Hk3/0t9t5+BzYcHUG1GmGS1it2YyoL2Z0bgXA3LxDFBunJKZi3fxCbfv0fQdXrktdCPULuSwKxRkzQLLqqbQJXzOD4HZ/C5ENfQr2PjTO93jOfQCSUBBpZFOEU8zMG12Dnde9EctnroQe2AOj3GcWk47lyUvtz+72NMV32Tg7avS9KOpZBfYz7pdVHRG8JwVYs/8/2b9Yg2rgR63/+PXjDv/0XOLZ5LZpZgV6rUc9pMTv3F5E/UzFsS0skcuvez+LwNz4PZVOYIkFelvQUrYnGAZH9tegmbKU2feR5xDGjd6kFvfjF2THvnPkZ1DWKvjW47Bc/gur1vwQ3cAUm0C/Gi7JTtBSs8PZAmsBefL9uPNLdBMJds+x3T0SPiBTsVMWSalGBacPEH9YIVsgKhXjbLlzyS7+IiaPjSEyMloSZnDuJUOqi+ZmJV9PI0HfRGkzd/imMfetbPh6qRFJRt6mxy8uHjdjJU9KQ00Q+YGYuRrdNu/wFgyMRJ2g0JrHj2rcj2nAVbKsKndIZSq7BMjys1MIGOPxMPwh7DXoHaXvUbiQOPnNXEwgXX3RiAkI2YQsqILkm0tKAS7HGW7mioipe4cHr3wT9+isw2WhISAf1mDNfpwlm/pm519HnwSsZO8XuTBy+ZR3WD27Cwb/8E0x9714mw/hATLmSaO/NwFy1Yuwk1MQRRPR2zxuoNAsIv5EiCYyduuhyVK54k3Q5F1GKXnvXkjbQVFYYEeDzAflOzaM0NMyddBd+7moC8UhA7PJmWS+E+0SrhHWjcrrcLPLEZw5mTiPasA4X/eJ7MHniBHol58Lfhcju/8ToK19YBqfzi+PmMI52IxqvEqnOMjhYwXOf+TOkT/+9+F98P0FfLILz4XSnR0egWuOSk+9n4B+Dn/0TMRaKoS7A5MwM1l13K/TgJrC3Ss5SvQmVdzr6jOg37KkiBi72ZeEfI3R8pHvnR3iVn+1qAiH6tsNS2mafNqIT2+mDSBxDTugcpAWIjXtiDN98I5IrrkZrZhpaooB9MlAkXIH1p7w3ndUEO73IEcRoTCQlVlO0sUAcJRgqWjj453+A7Pnvyy4vu/oMw8cLuGIaOHQQiNaAORckRIbfc3wqUpkyXvdgPgubDm3cieSq6wHU0SOm5hyW52xNICDUWSrpp61fgYVw7bqaQDohb8kOBHG9X4Oh2z66wgyuxYaffzcmRkbExc4dnu3iRN6XZF8auMow+I6D+CVox5FRiCKd2NwiThLEU6ew/88/DXviALIy3FzSfV2K8UPPIYkq4kRsy1j0y3g6o/hETqYwkabYfM1NEi6S5oqtfUqx6swSQC+a5uxO8aIzXXUgEEin5Sa20Rko12jRV3oE7wx63/YmuN2vQ8ZIYIaSaIdMgg4jmLKiILMVl5SyRLM4PQn6MGxhpdJjT08feg/uxZ7PfhpJ47jE/TG8o5gegzt5ED3MdpTaLJyjlsouJLFY1H6LrEjRXH8Jale9AXCJeNgpRnkdham5p8cNnxaGQCCQheHij5a7qLci+RBwEgwlGbN2A7a+/wOYOn5McuNFvJFfaWi2JZNgR4papLLlvdrXSrEE51AUGeKBCqIfP4ZDn/8ruKlRsKlzcXgPovEj0CaBa0fVUoGX+ToYFqVWBlPpFNa+4VaYNZuRs1U19ROJpyqXvXy+5c2uO6+6oKN5V3rJiNpEWkEnNn4hN6HRiMYuJOi74UZEl14Nd2oU1Vij1RaryAUY0CeOxOXPUnb2kmtxny+cxbTLUO/vR/ORr+J4Jcbg5Zfi1CP3Sr47jQbsK2iEBn0gJROdWB+3xSSmtTsx/NrrAU3Ho4Ih+wmvs4JA4CAdwMUN1kv1PmOKpmAx6zIaNlOIN2/G5ve8H6MjY4hUDKaYig9BfscQd3+HDkO8+NTsT6jCs2qIwbTOUR8awOSjt2P/J/9P6J/9FKavF6lEFvv8F29sIDnTjxFjrJli3TW3wAxvYY8s4Wgy2KzIODvQi+cQjsxCIBDILCgW+FCGeLOUKZNzyTliy75MzM8m0WjUbroJ2SW7kGUtsINrpqw42ZiymxS+uvkCd17WIeojjuJSkYAFXHrrfRheu1kqJ+a5g1Gsx8IMSOa7kNNxwqx2Atj+Legn9yhLo5IcJJixjOr1XphlTaOrLwoEssTyswkmfeteUWfBBdHbkdJZVwDx1i3Y8b73YfLYAdiYjkXW76UVSyGhH2H5Ksi8mVDnYR9yoJ5FiPMEmXMYdymmjJYErYjEI0pR6Rp0FlpHmJocx9br3opo3XYpmWpK87NkAZYhK/4p5g0Zvr4IAkEHeRFI5hwQX4iSPVhUA2ZNwZtKeRXdHOwB2H/DDRjfthvNFjthVRA5jVQXYKQvUffcaMT/1rBKIetbsdSQ1aiy7bLKxSJVuAgRswjp+ZcCDApFliNfuxH1694IqLpYqsjsxARGE5Z8KsWrIGUJPDr9FzhIJ+jwHImk7TDih7LVM9GeX4lyLBi35v3vQ3p8HImKUDCuSTEvvH3VUoMsfF6GkzlQbGLIO1OAOR8KVmRPPvkqY+YgDb1GY7oxhaFrboYZ3gDWEj7T0+XvOHvfhYcNR+dAIBDIHGCc3UeimQ/JYLPPvnfcArPpUinkZnUmTT7pJT8XPX2heZRCVMmN2ijunZEsH0T9wpJ7DGzCmuveBrhe2IgVJc+Nfy00h248FgjkvFbdtzPLLGO0dmDdez6A5vHjpQPP+rKf53X/Tj/2IpjnUcyH18imJ7HudbcgWn8pnPVOxEAgnWC49LlAIEvDaNEruI9TtGHIOrnFwFtvRHHRFkQZvdQ+6FG8iove4fxOiMOSegkjgWliq2/C0LU3SlQuOZcEIJ7fEF3/60Ag54sCpY7C0h/xti1Y9973YXxkHFFUgWIarGgqLx7Ep9y++PjZHZGkeKmUMt1qoO/adyDetAs5HYISN8blDUt8djA98+oAvTPhcXbfxO0g9YDoEpE6v/23vgXT6zYhS5kCu3i8OPNBlnotdsXscSrp7HluC7ikjr4bbwFMHTGzofjH7j6zFy81Wji/EAQCgSwEleUeY7SfZXi5r+nLVtLxxZux6T3vQ3biJEzC0j3eg8JbEtje100DVFvR9sr+QkP6K0gEvnqK3MP7Aj1nsk5qbE1NncS2N9yKaPPFbOUpZmB2apQUYrlxoJKF4LucY4FAlgOlTtdoI34Sw5Jv2qCJXgy/5RYUQxtQ5C1WuAKzOOjDYLVDJinlqigzGKlId3hJSq6vDpmyKB19HVajkhsYeunFC9lAVt+C5Jp3oEBNuibSQWPY97csPuEN1R3GCacWhUAgkEVBs/QJ7stS2pQfWP5HQsm9d33g/beheXwE2hipcMgc70wzGIQxWmwQ51X8pfd25nb4qoysuij3kUqNBVSk0JiaxOC1NyHesk0qgTJwka0M6P2XjMClB1j6Qbv4ikAg57n4QhuyQeNXSQAABsBJREFUkysJQ0lSoDAGa995E4o1W5EVvl4V80UYnsJatkznZQYgMw8XVxKo/bPaPPkPEBWeuFrGITUUn3JY55DF6zB0w43S0YrtfhkaQzFLGlbz9uF1XhAIBHIe4CMPaHsbJKaDIk3h0GT665btWPPOd2NqdAQVzdJCviMUgxgj9hShY08IZPEJUESil5zjsN8GlRFWV6QnnaJba2oMw9e+E/HFlyIt22NStSGXWkJ4W3zQcOYMCAQCOQMcZ/mFIpW1Is5IQ03DPHaFmqVG0oPBt70VrcH1MKlDlV0JGEzoWY4UqfYJTn7MhSQhHmNVFb7Tp0HkN0WBCgMmM3aRGsDAdW/xbc84l4ilRiGkIuIeqYTUFV7nDIFAIOcIOo/QFGlOByTyGKv+UzHRhUFyySUYese7MT02hYRtpssYqlwp8M8Ti5/AYngs0hs5hwhjhRTnYbJWo5Vj4NpbEW+/BAxalOpYJdtgJROhjMVueo7P3I0/CwRyjqvexj0WcminI/naWgVszLB4urIr2HDLLZjsHRBzr6UFi51uWXAOtGpRF1l8AiSO2Bqp/MhELLZs4Hi0305GdQzd9DaoSk1YDCUw3kxLhCKzC9szXPz+4czSEAgEsjSMFr9CkNJzAsFb8VE4pHJcs+4bkh07sPGWt2Ni/IQ0+mRoCmNvhUSEOBiRSxwX/iNjzX4WhYIcyvMPXuIUi12PY80bbkSy81KwxDU9JSLoWV9ojndie7c5t1z8GcKZjhAIBNIRPEudFEqYlWZkd9cGFfalohOb2TamB0M3vwVT9WHoooJaFktXXmdStKJUcteJ0EI00gKtrNJe1uWdjp1cV7EOva0qrK1jrFbD2utvAPSANxlr5qgYSZZii2om4YqYxdUNjGSpRex4PhBIR/As/6TgYfmf93F43GQB6mT3LtTe/jaMTY3BVhidVaAnS5DkNSQFRS2iNJeCf6x0SEsX0JMprGlWYIoetNhYM8kx1RzD4FU3I95+maQBtyUpTwftwLBAF8tfuc5XBgLpDJ/zPssOuapSx9Zbb0MjjpGpAjnrZbGEW1GTWlr0kVAnUS6CYq9xtivQ7D9CnYKdZlnehybeFDNRgU033QbVs1YkqMAgznuJOt4gEEhH8JzfSSJvTAtUYRDvuBw7P/iPMX34IGpRBU3TxGTSQiPO0TSSfS46A39DX0fLFJhOCoxXWnCmgYrRmBwfxZabPyj3YvfrpFgsVvj85h1+fRoCgUBOw+Kl/8TwkzyXwg15XMXad30AQ+/8FTQO7EM9iaDNNKq2APULUcRN6Tx0/ljNOiQ6R6UCnDx1EObaD2DNO/8BVFyT60W8EkX/pZ96uKOHQNd3mFpZRCD25igcK+JKe0IU40dx9K//Eo2v/gX61m1EJekVBT2LWDLIx4bESqMixRkMiqKJkZm9qL79Q9j6Cx+GGtwkpYBY8qddLTGIWSu3ioFAVg62YpylGZYdNzSVCq2kJXSSTWDmwQex/+6vINu3B0kSo9oTwTCsRHq7a7TSHFleQG/fha23vhe1N78NqjYsinlcFoyQaonBULWCKyhFyJeRubOiU3j13pz8g38+tpada2MUuUYWs0tujuLkYaQ//THGn3sWzf37EU1PSjhJ1ltHZetWDF62C5XdV8EM7/KNdBhiYlI4HcExItjf/NULwFXwZIGDvGyLQGxuBxx6v4f3wDugSOEyOvl8cpViz5E4knbNJC+GJ9Kr7kUpX+6n/e1lm36XDhQI5BVcePJukgSV7fl6hHAfeubL854Xzb/qFZx8lwwdCGTVLDTjSMrJCB0EYlgNSxNKj66GVZA5LMBGVs3cunciwQ/SvWsfnnwZEAgEsgwghUu6FwKBQLp37cOTLwMCgUCWAaRwSfdCIBBI9659ePJlQCAQyDKAFC7pXggEAunetQ9PvgwIBAJZBpDCJd0LgUAg3bv24cmXAYFAIMsAUrikeyEQCKR71z48+TIgEAhkGUAKl3QvBAKBdO/ahydfBgQCgSwDSOGS7oVAIJDuXfvw5MuAQCCQZQApXNK9EAgE0r1rH558GRAIBLIMIIVLuhcCgUC6d+3Dky8DAoFAlgGkcEn3QiAQSPeufXjyZUAgEMgygBQu6V4IBALp3rUPT74MCAQCWQaQwiXdC4FAIN279uHJlwGBQCDLAFK4pHshEAike9c+PPkyIBAIZBlACpd0LwQCgXTv2ocnXwYEAoEsA0jhku6FQCCQ7l378OTLgEAgkGUAKVzSvRAIBNK9ax+efBkQCASyDCCFS7oXAoFAunftw5MvAwKBQJYBpHBJ90Lg/wcpr/MUhU1jEAAAAABJRU5ErkJggg==;" vertex="1" parent="1">
                    <mxGeometry x="75" y="200" width="100" height="100" as="geometry"/>
                </mxCell>
                <mxCell id="18" value="&lt;h2&gt;&lt;font style=&quot;font-size: 26px&quot; color=&quot;#000000&quot;&gt;CI/CD&lt;/font&gt;&lt;/h2&gt;" style="text;html=1;strokeColor=none;fillColor=none;align=center;verticalAlign=middle;whiteSpace=wrap;rounded=0;" vertex="1" parent="1">
                    <mxGeometry x="50" y="140" width="90" height="30" as="geometry"/>
                </mxCell>
                <mxCell id="23" value="&lt;span style=&quot;color: rgb(0 , 0 , 0) ; font-size: 16px&quot;&gt;3 Flavors&lt;br&gt;- Development&lt;br&gt;for development&lt;br&gt;- Staging&lt;br&gt;for team revirew&lt;br&gt;- Production&lt;br&gt;for production&lt;br&gt;&lt;/span&gt;" style="text;html=1;align=left;verticalAlign=middle;resizable=0;points=[];autosize=1;" vertex="1" parent="1">
                    <mxGeometry x="65" y="330" width="130" height="110" as="geometry"/>
                </mxCell>
                <mxCell id="26" value="&lt;font color=&quot;#000000&quot; style=&quot;font-size: 17px&quot;&gt;codemagic&lt;/font&gt;" style="text;html=1;align=center;verticalAlign=middle;resizable=0;points=[];autosize=1;" vertex="1" parent="1">
                    <mxGeometry x="50" y="170" width="100" height="20" as="geometry"/>
                </mxCell>
                <mxCell id="28" value="c" style="rounded=0;whiteSpace=wrap;html=1;labelBackgroundColor=none;fillColor=#FAFAF3;align=left;strokeColor=#000000;" vertex="1" parent="1">
                    <mxGeometry x="230" y="130" width="170" height="370" as="geometry"/>
                </mxCell>
                <mxCell id="29" value="&lt;h2&gt;&lt;font style=&quot;font-size: 26px&quot; color=&quot;#000000&quot;&gt;Server&lt;/font&gt;&lt;/h2&gt;" style="text;html=1;strokeColor=none;fillColor=none;align=center;verticalAlign=middle;whiteSpace=wrap;rounded=0;" vertex="1" parent="1">
                    <mxGeometry x="240" y="140" width="80" height="30" as="geometry"/>
                </mxCell>
                <mxCell id="30" value="&lt;font color=&quot;#000000&quot;&gt;&lt;span style=&quot;font-size: 17px&quot;&gt;Firebase Functions&lt;br&gt;&lt;div style=&quot;text-align: left&quot;&gt;&lt;span&gt;TypeScript&lt;/span&gt;&lt;/div&gt;&lt;/span&gt;&lt;/font&gt;" style="text;html=1;align=center;verticalAlign=middle;resizable=0;points=[];autosize=1;" vertex="1" parent="1">
                    <mxGeometry x="230" y="170" width="160" height="30" as="geometry"/>
                </mxCell>
                <mxCell id="31" value="&lt;span style=&quot;font-size: 19px&quot;&gt;User&lt;/span&gt;" style="rounded=0;whiteSpace=wrap;html=1;fillColor=#f5f5f5;strokeColor=#666666;fontColor=#333333;" vertex="1" parent="1">
                    <mxGeometry x="260" y="410" width="110" height="80" as="geometry"/>
                </mxCell>
                <mxCell id="32" value="" style="rounded=0;whiteSpace=wrap;html=1;labelBackgroundColor=none;fillColor=#FAFAF3;align=left;strokeColor=#000000;" vertex="1" parent="1">
                    <mxGeometry x="410" y="130" width="190" height="180" as="geometry"/>
                </mxCell>
                <mxCell id="33" value="&lt;h2&gt;&lt;font style=&quot;font-size: 26px&quot; color=&quot;#000000&quot;&gt;Articles&lt;/font&gt;&lt;/h2&gt;" style="text;html=1;strokeColor=none;fillColor=none;align=center;verticalAlign=middle;whiteSpace=wrap;rounded=0;" vertex="1" parent="1">
                    <mxGeometry x="424" y="140" width="80" height="30" as="geometry"/>
                </mxCell>
                <mxCell id="34" value="&lt;font color=&quot;#000000&quot;&gt;&lt;span style=&quot;font-size: 17px&quot;&gt;Contentful&lt;/span&gt;&lt;/font&gt;" style="text;html=1;align=left;verticalAlign=middle;resizable=0;points=[];autosize=1;" vertex="1" parent="1">
                    <mxGeometry x="414" y="170" width="90" height="20" as="geometry"/>
                </mxCell>
                <mxCell id="35" value="c" style="rounded=0;whiteSpace=wrap;html=1;labelBackgroundColor=none;fillColor=#FAFAF3;align=left;strokeColor=#000000;" vertex="1" parent="1">
                    <mxGeometry x="410" y="320" width="190" height="180" as="geometry"/>
                </mxCell>
                <mxCell id="37" value="&lt;h2&gt;&lt;font style=&quot;font-size: 26px&quot; color=&quot;#000000&quot;&gt;Lessons&lt;/font&gt;&lt;/h2&gt;" style="text;html=1;strokeColor=none;fillColor=none;align=center;verticalAlign=middle;whiteSpace=wrap;rounded=0;" vertex="1" parent="1">
                    <mxGeometry x="430" y="330" width="80" height="30" as="geometry"/>
                </mxCell>
                <mxCell id="38" value="&lt;font color=&quot;#000000&quot;&gt;&lt;span style=&quot;font-size: 17px&quot;&gt;NaturalReaders&lt;/span&gt;&lt;/font&gt;" style="text;html=1;align=left;verticalAlign=middle;resizable=0;points=[];autosize=1;" vertex="1" parent="1">
                    <mxGeometry x="414" y="360" width="130" height="20" as="geometry"/>
                </mxCell>
            </root>
        </mxGraphModel>
    </diagram>
</mxfile>